# xmcd
#
# Track frame offsets:
#	150
#	13717
#	25773
#	40591
#	57661
#	70372
#	85402
#	99015
#	113101
#	130050
#	144872
#	158316
#	170421
#	185221
#	196950
#	212394
#
# Disc length: 3041 seconds
#
# Revision: 0
# Processed by: cddbd v1.5.2PL0 Copyright (c) Steve Scherf et al.
# Submitted via: audiograbber 1.83.01
#
DISCID=cc0bdf10
DTITLE=Freddy Pfister Band - Unser Garten Eden
DYEAR=2011
DGENRE=volkstümlich
TTITLE0=Unser Garten Eden ist das Zillertal
TTITLE1=Du hast di in mein Herz gelacht
TTITLE2=Am Ende jeder Einsamkeit
TTITLE3=Frag die Zigeunerin
TTITLE4=Musik ist wie a Regenbogen
TTITLE5=Ab Morgen
TTITLE6=Stern-Boarischer
TTITLE7=Der Gipfel des Glücks
TTITLE8=A Wahnsinn´s Gfühl
TTITLE9=Die alte Dame im kleinen Cafe
TTITLE10=Lebenslänglich
TTITLE11=LJ-JB-Polka
TTITLE12=Ich wollt dich längst wiedersehen
TTITLE13=Ein Tiroler bleibt ein Tiroler
TTITLE14=Pils and Slip
TTITLE15=Die Stunde Null der Zärtlichkeit 
EXTD=
EXTT0=
EXTT1=
EXTT2=
EXTT3=
EXTT4=
EXTT5=
EXTT6=
EXTT7=
EXTT8=
EXTT9=
EXTT10=
EXTT11=
EXTT12=
EXTT13=
EXTT14=
EXTT15=
PLAYORDER=
